<svg width="26" height="25" viewBox="0 0 26 25" fill="none" xmlns="http://www.w3.org/2000/svg">
<path d="M13 23.4492C12.8438 23.4492 12.6875 23.4453 12.5312 23.4375C12.3828 23.4297 12.2344 23.418 12.0859 23.4023L11.4883 24.5156C11.418 24.6562 11.3281 24.7539 11.2188 24.8086C11.1094 24.8633 10.9766 24.8789 10.8203 24.8555C10.6797 24.8242 10.5664 24.7656 10.4805 24.6797C10.3945 24.5938 10.3398 24.4688 10.3164 24.3047L10.1406 23.0742C9.53906 22.9023 8.96875 22.6914 8.42969 22.4414L7.48047 23.2852C7.37109 23.3945 7.25391 23.4531 7.12891 23.4609C7.01172 23.4766 6.88281 23.4453 6.74219 23.3672C6.61719 23.2969 6.53125 23.2031 6.48438 23.0859C6.4375 22.9766 6.42969 22.8438 6.46094 22.6875L6.70703 21.457C6.46484 21.2852 6.22266 21.1016 5.98047 20.9062C5.74609 20.7109 5.51953 20.5 5.30078 20.2734L4.14062 20.7539C3.85938 20.8633 3.61719 20.8047 3.41406 20.5781C3.32812 20.4609 3.27734 20.3438 3.26172 20.2266C3.25391 20.1016 3.29297 19.9688 3.37891 19.8281L4.03516 18.7734C3.86328 18.5156 3.69922 18.2578 3.54297 18C3.39453 17.7344 3.25391 17.4609 3.12109 17.1797L1.86719 17.2266C1.71094 17.2266 1.58203 17.1953 1.48047 17.1328C1.37891 17.0703 1.30078 16.9648 1.24609 16.8164C1.20703 16.6758 1.20312 16.5469 1.23438 16.4297C1.26562 16.3125 1.34375 16.207 1.46875 16.1133L2.45312 15.3281C2.375 15.0312 2.30859 14.7344 2.25391 14.4375C2.19922 14.1406 2.16016 13.8359 2.13672 13.5234L0.941406 13.1367C0.785156 13.0898 0.671875 13.0156 0.601562 12.9141C0.53125 12.8125 0.496094 12.6875 0.496094 12.5391C0.496094 12.3828 0.53125 12.2578 0.601562 12.1641C0.671875 12.0625 0.785156 11.9883 0.941406 11.9414L2.13672 11.5547C2.16016 11.2422 2.19922 10.9375 2.25391 10.6406C2.30859 10.3438 2.375 10.0469 2.45312 9.75L1.46875 8.97656C1.21094 8.78125 1.13672 8.54297 1.24609 8.26172C1.30078 8.12109 1.37891 8.01562 1.48047 7.94531C1.58203 7.875 1.71484 7.84375 1.87891 7.85156L3.12109 7.88672C3.25391 7.61328 3.39453 7.34375 3.54297 7.07812C3.69922 6.8125 3.86328 6.55469 4.03516 6.30469L3.36719 5.25C3.20312 4.97656 3.21875 4.73047 3.41406 4.51172C3.52344 4.39453 3.63672 4.32031 3.75391 4.28906C3.87109 4.25 4 4.26172 4.14062 4.32422L5.30078 4.79297C5.52734 4.58203 5.75391 4.37891 5.98047 4.18359C6.21484 3.98828 6.45703 3.80469 6.70703 3.63281L6.44922 2.39062C6.41797 2.24219 6.42578 2.10938 6.47266 1.99219C6.51953 1.875 6.60938 1.78125 6.74219 1.71094C6.875 1.64062 7.00391 1.60937 7.12891 1.61719C7.25391 1.625 7.375 1.68359 7.49219 1.79297L8.41797 2.63672C8.69141 2.51172 8.96875 2.39453 9.25 2.28516C9.53906 2.17578 9.83203 2.08203 10.1289 2.00391L10.3164 0.761719C10.3398 0.605469 10.3906 0.484375 10.4688 0.398438C10.5547 0.304688 10.6758 0.246094 10.832 0.222656C10.9805 0.199219 11.1094 0.214844 11.2188 0.269531C11.3281 0.316406 11.418 0.414062 11.4883 0.5625L12.0859 1.66406C12.2344 1.64844 12.3828 1.64062 12.5312 1.64062C12.6875 1.63281 12.8438 1.62891 13 1.62891C13.1562 1.62891 13.3086 1.63281 13.457 1.64062C13.6133 1.64062 13.7656 1.64844 13.9141 1.66406L14.5117 0.550781C14.582 0.417969 14.6719 0.324219 14.7812 0.269531C14.8906 0.207031 15.0234 0.191406 15.1797 0.222656C15.3203 0.253906 15.4336 0.3125 15.5195 0.398438C15.6055 0.484375 15.6562 0.605469 15.6719 0.761719L15.8477 2.00391C16.1523 2.08203 16.4492 2.17578 16.7383 2.28516C17.0273 2.38672 17.3047 2.5 17.5703 2.625L18.5195 1.79297C18.6367 1.69141 18.7539 1.63281 18.8711 1.61719C18.9883 1.60156 19.1172 1.63281 19.2578 1.71094C19.3828 1.78906 19.4688 1.88281 19.5156 1.99219C19.5625 2.10156 19.5742 2.23828 19.5508 2.40234L19.2812 3.60938C19.5312 3.78906 19.7734 3.97656 20.0078 4.17188C20.2422 4.36719 20.4688 4.57422 20.6875 4.79297L21.8594 4.32422C22.1406 4.20703 22.3828 4.26562 22.5859 4.5C22.6719 4.61719 22.7188 4.73828 22.7266 4.86328C22.7422 4.98047 22.707 5.10938 22.6211 5.25L21.9648 6.30469C22.1367 6.54688 22.2969 6.80078 22.4453 7.06641C22.6016 7.33203 22.7461 7.60547 22.8789 7.88672L24.1328 7.85156C24.2812 7.85156 24.4062 7.88281 24.5078 7.94531C24.6094 8.00781 24.6875 8.11328 24.7422 8.26172C24.7891 8.41016 24.7969 8.54297 24.7656 8.66016C24.7422 8.76953 24.6641 8.875 24.5312 8.97656L23.5469 9.73828C23.625 10.0352 23.6914 10.3359 23.7461 10.6406C23.8008 10.9375 23.8398 11.2422 23.8633 11.5547L25.0586 11.9414C25.2148 11.9883 25.3281 12.0625 25.3984 12.1641C25.4688 12.2578 25.5039 12.3828 25.5039 12.5391C25.5039 12.6875 25.4688 12.8125 25.3984 12.9141C25.3281 13.0156 25.2148 13.0898 25.0586 13.1367L23.8633 13.5234C23.8398 13.8359 23.8008 14.1406 23.7461 14.4375C23.6914 14.7344 23.625 15.0312 23.5469 15.3281L24.543 16.1016C24.668 16.2031 24.7461 16.3125 24.7773 16.4297C24.8164 16.5391 24.8086 16.6641 24.7539 16.8047C24.6992 16.9531 24.6211 17.0625 24.5195 17.1328C24.418 17.2031 24.2852 17.2344 24.1211 17.2266L22.8789 17.1914C22.7461 17.4648 22.6016 17.7344 22.4453 18C22.2969 18.2578 22.1367 18.5117 21.9648 18.7617L22.6328 19.8281C22.7188 19.9609 22.7539 20.0898 22.7383 20.2148C22.7305 20.332 22.6797 20.4492 22.5859 20.5664C22.4844 20.6836 22.375 20.7617 22.2578 20.8008C22.1406 20.832 22.0039 20.8164 21.8477 20.7539L20.6875 20.2852C20.4688 20.4961 20.2422 20.6992 20.0078 20.8945C19.7734 21.0898 19.5312 21.2773 19.2812 21.457L19.5508 22.6875C19.582 22.8438 19.5742 22.9766 19.5273 23.0859C19.4805 23.1953 19.3906 23.2891 19.2578 23.3672C19.1172 23.4375 18.9844 23.4688 18.8594 23.4609C18.7422 23.4531 18.625 23.3945 18.5078 23.2852L17.582 22.4414C17.3086 22.5664 17.0273 22.6797 16.7383 22.7812C16.457 22.8906 16.1641 22.9883 15.8594 23.0742L15.6719 24.3164C15.6562 24.4727 15.6055 24.5938 15.5195 24.6797C15.4414 24.7734 15.3281 24.832 15.1797 24.8555C15.0234 24.8711 14.8906 24.8516 14.7812 24.7969C14.6797 24.75 14.5898 24.6562 14.5117 24.5156L13.9141 23.4023C13.7656 23.418 13.6133 23.4297 13.457 23.4375C13.3086 23.4453 13.1562 23.4492 13 23.4492ZM13 21.9609C14.3047 21.9609 15.5234 21.7148 16.6562 21.2227C17.7969 20.7383 18.8008 20.0664 19.668 19.207C20.5352 18.3398 21.2109 17.3398 21.6953 16.207C22.1797 15.0664 22.4219 13.8438 22.4219 12.5391C22.4219 11.2344 22.1797 10.0156 21.6953 8.88281C21.2109 7.74219 20.5352 6.73828 19.668 5.87109C18.8008 5.00391 17.7969 4.32812 16.6562 3.84375C15.5234 3.35938 14.3047 3.11719 13 3.11719C11.7031 3.11719 10.4805 3.35938 9.33203 3.84375C8.19141 4.32812 7.1875 5.00391 6.32031 5.87109C5.46094 6.73828 4.78516 7.74219 4.29297 8.88281C3.80859 10.0156 3.56641 11.2344 3.56641 12.5391C3.56641 13.8438 3.80859 15.0664 4.29297 16.207C4.78516 17.3398 5.46094 18.3398 6.32031 19.207C7.1875 20.0664 8.19141 20.7383 9.33203 21.2227C10.4805 21.7148 11.7031 21.9609 13 21.9609ZM11.207 10.7812L7.19922 3.90234L8.32422 3.28125L12.2852 10.1016L11.207 10.7812ZM15.4375 13.1367V11.8711H23.3477V13.1367H15.4375ZM12.3672 14.9883L8.25391 21.7852L7.12891 21.1289L11.2773 14.2969L12.3672 14.9883ZM13.0117 15.3516C12.4883 15.3516 12.0156 15.2266 11.5938 14.9766C11.1719 14.7188 10.832 14.3789 10.5742 13.957C10.3242 13.5273 10.1992 13.0547 10.1992 12.5391C10.1992 12.0156 10.3242 11.543 10.5742 11.1211C10.832 10.6992 11.1719 10.3633 11.5938 10.1133C12.0156 9.85547 12.4883 9.72656 13.0117 9.72656C13.5352 9.72656 14.0078 9.85547 14.4297 10.1133C14.8516 10.3633 15.1914 10.6992 15.4492 11.1211C15.707 11.543 15.8359 12.0156 15.8359 12.5391C15.8359 13.0547 15.707 13.5273 15.4492 13.957C15.1914 14.3789 14.8516 14.7188 14.4297 14.9766C14.0078 15.2266 13.5352 15.3516 13.0117 15.3516ZM13.0117 13.9922C13.418 13.9922 13.7617 13.8516 14.043 13.5703C14.3242 13.2812 14.4648 12.9375 14.4648 12.5391C14.4648 12.1406 14.3242 11.8008 14.043 11.5195C13.7617 11.2305 13.418 11.0859 13.0117 11.0859C12.6133 11.0859 12.2695 11.2305 11.9805 11.5195C11.6992 11.8008 11.5586 12.1406 11.5586 12.5391C11.5586 12.9375 11.6992 13.2812 11.9805 13.5703C12.2695 13.8516 12.6133 13.9922 13.0117 13.9922Z" fill="#7585B7"/>
</svg>
