<svg width="27" height="26" viewBox="0 0 27 26" fill="none" xmlns="http://www.w3.org/2000/svg">
<mask id="path-1-inside-1_1940_250" fill="white">
<path d="M6.79688 0.796875C6.89062 0.585938 7.04297 0.46875 7.25391 0.445312C7.46484 0.414062 7.65625 0.488281 7.82812 0.667969L10.6289 3.50391L13.0078 0.421875C13.1406 0.242188 13.3047 0.152344 13.5 0.152344C13.7031 0.152344 13.875 0.242188 14.0156 0.421875L16.3945 3.50391L19.1836 0.667969C19.3633 0.488281 19.5547 0.414062 19.7578 0.445312C19.9688 0.46875 20.125 0.585938 20.2266 0.796875C20.5 1.4375 20.7031 2.08203 20.8359 2.73047C20.9688 3.37109 21.0352 4.01172 21.0352 4.65234C21.0352 5.71484 20.8555 6.70312 20.4961 7.61719C20.1445 8.53125 19.6367 9.33594 18.9727 10.0312C18.3086 10.7188 17.5156 11.2578 16.5938 11.6484C15.6719 12.0391 14.6445 12.2344 13.5117 12.2344C12.3789 12.2344 11.3477 12.0391 10.418 11.6484C9.49609 11.2578 8.70312 10.7188 8.03906 10.0312C7.38281 9.33594 6.875 8.53125 6.51562 7.61719C6.15625 6.70312 5.97656 5.71484 5.97656 4.65234C5.97656 4.01172 6.04297 3.37109 6.17578 2.73047C6.30859 2.08203 6.51562 1.4375 6.79688 0.796875ZM12.7852 24.3398V11.25H14.2266V23.7305L14.0039 23.4609C14.418 22.2891 14.9961 21.207 15.7383 20.2148C16.4883 19.2227 17.3711 18.3594 18.3867 17.625C19.4102 16.8828 20.5508 16.3086 21.8086 15.9023C23.0742 15.4883 24.4258 15.2812 25.8633 15.2812C26.1523 15.2812 26.3438 15.3633 26.4375 15.5273C26.5391 15.6914 26.543 15.9102 26.4492 16.1836C26.0195 17.4648 25.3789 18.6445 24.5273 19.7227C23.6836 20.8008 22.6875 21.7344 21.5391 22.5234C20.3906 23.3203 19.1328 23.9375 17.7656 24.375C16.4062 24.8125 14.9883 25.0312 13.5117 25.0312C13.3008 25.0312 13.125 24.9688 12.9844 24.8438C12.8516 24.7266 12.7852 24.5586 12.7852 24.3398ZM11.4258 20.5898V24.3398C11.4258 24.5039 11.4492 24.6836 11.4961 24.8789C9.79297 24.6445 8.20312 24.1289 6.72656 23.332C5.25781 22.5352 3.98828 21.5234 2.91797 20.2969C1.84766 19.0703 1.05469 17.6992 0.539062 16.1836C0.445312 15.9102 0.449219 15.6914 0.550781 15.5273C0.652344 15.3633 0.84375 15.2812 1.125 15.2812C2.60938 15.2812 3.99609 15.5039 5.28516 15.9492C6.58203 16.3945 7.75 17.0117 8.78906 17.8008C9.82812 18.5898 10.707 19.5195 11.4258 20.5898Z"/>
</mask>
<path d="M6.79688 0.796875L5.42614 0.187661L5.42341 0.19389L6.79688 0.796875ZM7.25391 0.445312L7.41955 1.93614L7.4467 1.93312L7.47373 1.92912L7.25391 0.445312ZM7.82812 0.667969L6.74416 1.7048L6.75245 1.71346L6.76087 1.72199L7.82812 0.667969ZM10.6289 3.50391L9.56165 4.55793L10.7677 5.77907L11.8163 4.42043L10.6289 3.50391ZM13.0078 0.421875L14.1952 1.3384L14.2048 1.32603L14.2141 1.31346L13.0078 0.421875ZM14.0156 0.421875L15.2031 -0.494674L15.1969 -0.502587L14.0156 0.421875ZM16.3945 3.50391L15.2071 4.42043L16.258 5.78195L17.464 4.55569L16.3945 3.50391ZM19.1836 0.667969L18.1229 -0.392728L18.1141 -0.383816L19.1836 0.667969ZM19.7578 0.445312L19.5297 1.92787L19.5609 1.93266L19.5922 1.93614L19.7578 0.445312ZM20.2266 0.796875L21.6061 0.208027L21.5928 0.176771L21.5781 0.146152L20.2266 0.796875ZM20.8359 2.73047L19.3664 3.03145L19.3672 3.03497L20.8359 2.73047ZM20.4961 7.61719L19.1001 7.06833L19.0961 7.07872L20.4961 7.61719ZM18.9727 10.0312L20.0516 11.0734L20.0574 11.0673L18.9727 10.0312ZM10.418 11.6484L9.83274 13.0296L9.83692 13.0313L10.418 11.6484ZM8.03906 10.0312L6.9482 11.0608L6.95415 11.0671L6.96017 11.0734L8.03906 10.0312ZM6.17578 2.73047L7.64455 3.03497L7.64527 3.03145L6.17578 2.73047ZM12.7852 11.25V9.75H11.2852V11.25H12.7852ZM14.2266 11.25H15.7266V9.75H14.2266V11.25ZM14.2266 23.7305L13.0701 24.6858L15.7266 27.9015V23.7305H14.2266ZM14.0039 23.4609L12.5896 22.9612L12.3068 23.7617L12.8475 24.4163L14.0039 23.4609ZM15.7383 20.2148L14.5417 19.3103L14.5371 19.3164L15.7383 20.2148ZM18.3867 17.625L19.2656 18.8405L19.2673 18.8393L18.3867 17.625ZM21.8086 15.9023L22.2696 17.3298L22.275 17.328L21.8086 15.9023ZM26.4375 15.5273L25.1351 16.2716L25.1482 16.2945L25.1621 16.3169L26.4375 15.5273ZM26.4492 16.1836L25.0303 15.6971L25.0271 15.7067L26.4492 16.1836ZM24.5273 19.7227L23.3502 18.7929L23.3461 18.7982L24.5273 19.7227ZM21.5391 22.5234L20.6896 21.2871L20.6839 21.2911L21.5391 22.5234ZM17.7656 24.375L17.3085 22.9464L17.3061 22.9471L17.7656 24.375ZM12.9844 24.8438L13.9809 23.7226L13.9768 23.719L12.9844 24.8438ZM11.4258 20.5898H12.9258V20.1329L12.6711 19.7536L11.4258 20.5898ZM11.4961 24.8789L11.2916 26.3649L13.4672 26.6643L12.9547 24.5288L11.4961 24.8789ZM6.72656 23.332L6.01123 24.6505L6.01416 24.6521L6.72656 23.332ZM0.539062 16.1836L1.95914 15.7005L1.95798 15.6971L0.539062 16.1836ZM5.28516 15.9492L4.79537 17.367L4.79801 17.3679L5.28516 15.9492ZM6.79688 0.796875L8.16759 1.40608C8.13334 1.48315 8.05392 1.61825 7.89601 1.73972C7.73261 1.86541 7.55735 1.92083 7.41955 1.93614L7.25391 0.445312L7.08826 -1.04551C6.29349 -0.957205 5.71338 -0.458592 5.42616 0.187667L6.79688 0.796875ZM7.25391 0.445312L7.47373 1.92912C7.33244 1.95005 7.16962 1.93667 7.01337 1.87608C6.86557 1.81877 6.77859 1.7408 6.74416 1.7048L7.82812 0.667969L8.91209 -0.368865C8.46789 -0.833257 7.81127 -1.15363 7.03408 -1.03849L7.25391 0.445312ZM7.82812 0.667969L6.76087 1.72199L9.56165 4.55793L10.6289 3.50391L11.6962 2.44988L8.89538 -0.386056L7.82812 0.667969ZM10.6289 3.50391L11.8163 4.42043L14.1952 1.3384L13.0078 0.421875L11.8204 -0.494654L9.44148 2.58738L10.6289 3.50391ZM13.0078 0.421875L14.2141 1.31346C14.176 1.36497 14.0932 1.45749 13.9509 1.53537C13.8022 1.61683 13.6426 1.65234 13.5 1.65234V0.152344V-1.34766C12.7556 -1.34766 12.1706 -0.969002 11.8015 -0.469712L13.0078 0.421875ZM13.5 0.152344V1.65234C13.3714 1.65234 13.2251 1.62161 13.0864 1.54906C12.9528 1.47924 12.8726 1.39517 12.8344 1.34634L14.0156 0.421875L15.1969 -0.502587C14.8119 -0.99456 14.2255 -1.34766 13.5 -1.34766V0.152344ZM14.0156 0.421875L12.8282 1.3384L15.2071 4.42043L16.3945 3.50391L17.582 2.58738L15.203 -0.494654L14.0156 0.421875ZM16.3945 3.50391L17.464 4.55569L20.2531 1.71975L19.1836 0.667969L18.1141 -0.383816L15.3251 2.45212L16.3945 3.50391ZM19.1836 0.667969L20.2443 1.72863C20.2208 1.75213 20.1433 1.82214 20.0042 1.87608C19.8546 1.93408 19.6876 1.95216 19.5297 1.92787L19.7578 0.445312L19.9859 -1.03725C19.1982 -1.15843 18.5512 -0.820934 18.1229 -0.392691L19.1836 0.667969ZM19.7578 0.445312L19.5922 1.93614C19.4551 1.92091 19.2879 1.8668 19.1332 1.75078C18.9843 1.63912 18.908 1.51604 18.8751 1.4476L20.2266 0.796875L21.5781 0.146152C21.2799 -0.473137 20.7081 -0.958326 19.9235 -1.04551L19.7578 0.445312ZM20.2266 0.796875L18.847 1.38572C19.0829 1.93848 19.2549 2.48675 19.3664 3.03145L20.8359 2.73047L22.3054 2.42949C22.1514 1.67731 21.9171 0.93652 21.6061 0.208027L20.2266 0.796875ZM20.8359 2.73047L19.3672 3.03497C19.4797 3.57756 19.5352 4.11618 19.5352 4.65234H21.0352H22.5352C22.5352 3.90726 22.4578 3.16463 22.3047 2.42597L20.8359 2.73047ZM21.0352 4.65234H19.5352C19.5352 5.54245 19.3853 6.34293 19.1001 7.06834L20.4961 7.61719L21.8921 8.16604C22.3256 7.06332 22.5352 5.88724 22.5352 4.65234H21.0352ZM20.4961 7.61719L19.0961 7.07872C18.8143 7.81126 18.4124 8.44602 17.8879 8.99525L18.9727 10.0312L20.0574 11.0673C20.861 10.2259 21.4747 9.25124 21.8961 8.15566L20.4961 7.61719ZM18.9727 10.0312L17.8938 8.98914C17.3764 9.52475 16.7537 9.95155 16.0085 10.2673L16.5938 11.6484L17.179 13.0296C18.2775 12.5641 19.2408 11.9128 20.0515 11.0734L18.9727 10.0312ZM16.5938 11.6484L16.0085 10.2673C15.2946 10.5698 14.4698 10.7344 13.5117 10.7344V12.2344V13.7344C14.8193 13.7344 16.0492 13.5083 17.179 13.0296L16.5938 11.6484ZM13.5117 12.2344V10.7344C12.5539 10.7344 11.7234 10.5699 10.999 10.2655L10.418 11.6484L9.83692 13.0313C10.972 13.5082 12.2039 13.7344 13.5117 13.7344V12.2344ZM10.418 11.6484L11.0032 10.2673C10.258 9.95155 9.6353 9.52475 9.11795 8.98914L8.03906 10.0312L6.96017 11.0734C7.77095 11.9128 8.73418 12.5641 9.83275 13.0296L10.418 11.6484ZM8.03906 10.0312L9.12992 9.00167C8.60875 8.44948 8.20285 7.80911 7.91161 7.06834L6.51562 7.61719L5.11964 8.16604C5.54715 9.25339 6.15687 10.2224 6.9482 11.0608L8.03906 10.0312ZM6.51562 7.61719L7.91161 7.06834C7.6264 6.34293 7.47656 5.54245 7.47656 4.65234H5.97656H4.47656C4.47656 5.88724 4.6861 7.06332 5.11964 8.16604L6.51562 7.61719ZM5.97656 4.65234H7.47656C7.47656 4.11618 7.53206 3.57756 7.64455 3.03497L6.17578 2.73047L4.70701 2.42597C4.55388 3.16463 4.47656 3.90726 4.47656 4.65234H5.97656ZM6.17578 2.73047L7.64527 3.03145C7.75566 2.49251 7.92926 1.94899 8.17034 1.39986L6.79688 0.796875L5.42341 0.19389C5.10199 0.926012 4.86153 1.67155 4.70629 2.42949L6.17578 2.73047ZM12.7852 24.3398H14.2852V11.25H12.7852H11.2852V24.3398H12.7852ZM12.7852 11.25V12.75H14.2266V11.25V9.75H12.7852V11.25ZM14.2266 11.25H12.7266V23.7305H14.2266H15.7266V11.25H14.2266ZM14.2266 23.7305L15.383 22.7751L15.1603 22.5056L14.0039 23.4609L12.8475 24.4163L13.0701 24.6858L14.2266 23.7305ZM14.0039 23.4609L15.4182 23.9607C15.7819 22.9313 16.2883 21.9838 16.9394 21.1133L15.7383 20.2148L14.5371 19.3164C13.7039 20.4303 13.054 21.6469 12.5896 22.9612L14.0039 23.4609ZM15.7383 20.2148L16.9349 21.1194C17.5943 20.247 18.3698 19.4883 19.2656 18.8405L18.3867 17.625L17.5078 16.4095C16.3724 17.2305 15.3822 18.1983 14.5417 19.3103L15.7383 20.2148ZM18.3867 17.625L19.2673 18.8393C20.1572 18.1939 21.1551 17.6897 22.2696 17.3297L21.8086 15.9023L21.3476 14.4749C19.9464 14.9275 18.6631 15.5717 17.5061 16.4107L18.3867 17.625ZM21.8086 15.9023L22.275 17.328C23.3786 16.9669 24.5716 16.7812 25.8633 16.7812V15.2812V13.7812C24.2799 13.7812 22.7699 14.0096 21.3422 14.4767L21.8086 15.9023ZM25.8633 15.2812V16.7812C25.8783 16.7812 25.7812 16.7851 25.6328 16.7215C25.4609 16.6478 25.2667 16.5018 25.1351 16.2716L26.4375 15.5273L27.7399 14.7831C27.2551 13.9348 26.3826 13.7812 25.8633 13.7812V15.2812ZM26.4375 15.5273L25.1621 16.3169C25.0526 16.14 25.019 15.9648 25.0168 15.8412C25.0149 15.7301 25.0377 15.6755 25.0303 15.6971L26.4492 16.1836L27.8681 16.6701C28.0335 16.1877 28.1497 15.4435 27.7129 14.7378L26.4375 15.5273ZM26.4492 16.1836L25.0271 15.7067C24.6533 16.8212 24.0964 17.8482 23.3502 18.7929L24.5273 19.7227L25.7044 20.6524C26.6614 19.4409 27.3858 18.1085 27.8714 16.6605L26.4492 16.1836ZM24.5273 19.7227L23.3461 18.7982C22.5981 19.7539 21.7145 20.583 20.6896 21.2871L21.5391 22.5234L22.3885 23.7597C23.6605 22.8858 24.7691 21.8476 25.7086 20.6471L24.5273 19.7227ZM21.5391 22.5234L20.6839 21.2911C19.661 22.0009 18.5379 22.553 17.3085 22.9464L17.7656 24.375L18.2228 25.8036C19.7278 25.322 21.1203 24.6398 22.3942 23.7558L21.5391 22.5234ZM17.7656 24.375L17.3061 22.9471C16.1002 23.3352 14.8376 23.5312 13.5117 23.5312V25.0312V26.5312C15.1389 26.5312 16.7123 26.2898 18.2252 25.8029L17.7656 24.375ZM13.5117 25.0312V23.5312C13.5554 23.5312 13.6311 23.538 13.7242 23.5711C13.8198 23.6051 13.9082 23.658 13.9809 23.7226L12.9844 24.8438L11.9878 25.9649C12.4367 26.3639 12.9812 26.5312 13.5117 26.5312V25.0312ZM12.9844 24.8438L13.9768 23.719C14.0915 23.8202 14.1778 23.9467 14.2299 24.0784C14.2791 24.2028 14.2852 24.2992 14.2852 24.3398H12.7852H11.2852C11.2852 24.8795 11.4625 25.5014 11.9919 25.9685L12.9844 24.8438ZM11.4258 20.5898H9.92578V24.3398H11.4258H12.9258V20.5898H11.4258ZM11.4258 24.3398H9.92578C9.92578 24.6446 9.96901 24.9435 10.0375 25.229L11.4961 24.8789L12.9547 24.5288C12.9294 24.4236 12.9258 24.3632 12.9258 24.3398H11.4258ZM11.4961 24.8789L11.7006 23.3929C10.1709 23.1824 8.75361 22.7215 7.43896 22.012L6.72656 23.332L6.01416 24.6521C7.65264 25.5363 9.41506 26.1067 11.2916 26.3649L11.4961 24.8789ZM6.72656 23.332L7.44189 22.0136C6.12588 21.2996 4.99795 20.3991 4.04817 19.3106L2.91797 20.2969L1.78777 21.2831C2.97861 22.6478 4.38975 23.7707 6.01123 24.6505L6.72656 23.332ZM2.91797 20.2969L4.04817 19.3106C3.10411 18.2288 2.41075 17.028 1.95913 15.7005L0.539062 16.1836L-0.881007 16.6667C-0.301373 18.3705 0.591202 19.9119 1.78777 21.2831L2.91797 20.2969ZM0.539062 16.1836L1.95798 15.6971C1.95058 15.6755 1.97342 15.7301 1.97144 15.8412C1.96923 15.9648 1.93566 16.14 1.82618 16.3169L0.550781 15.5273L-0.724617 14.7378C-1.16147 15.4435 -1.04526 16.1877 -0.879856 16.6701L0.539062 16.1836ZM0.550781 15.5273L1.82618 16.3169C1.70171 16.5179 1.52534 16.6512 1.36139 16.7215C1.28727 16.7533 1.2263 16.7678 1.1874 16.7745C1.14879 16.7812 1.12638 16.7812 1.125 16.7812V15.2812V13.7812C0.582397 13.7812 -0.236848 13.9499 -0.724617 14.7378L0.550781 15.5273ZM1.125 15.2812V16.7812C2.4574 16.7812 3.6772 16.9807 4.79538 17.367L5.28516 15.9492L5.77494 14.5314C4.31499 14.0271 2.76135 13.7812 1.125 13.7812V15.2812ZM5.28516 15.9492L4.79801 17.3679C5.95159 17.764 6.97638 18.3077 7.88189 18.9954L8.78906 17.8008L9.69623 16.6062C8.52362 15.7157 7.21247 15.025 5.7723 14.5305L5.28516 15.9492ZM8.78906 17.8008L7.88189 18.9954C8.79088 19.6857 9.55506 20.4947 10.1805 21.4261L11.4258 20.5898L12.6711 19.7536C11.859 18.5444 10.8654 17.494 9.69623 16.6062L8.78906 17.8008Z" fill="#7585B7" mask="url(#path-1-inside-1_1940_250)"/>
</svg>
