<svg width="24" height="24" viewBox="0 0 24 24" fill="none" xmlns="http://www.w3.org/2000/svg">
<path d="M21.8744 8.18608C21.7653 8.25293 19.1672 9.66372 19.1672 12.7918C19.2897 16.3591 22.4459 17.6102 22.5 17.6102C22.4459 17.677 22.0235 19.3144 20.7724 21.0308C19.7795 22.5093 18.6775 24 17.004 24C15.4121 24 14.8407 23.0146 13.004 23.0146C11.0315 23.0146 10.4734 24 8.96314 24C7.28967 24 6.10599 22.4295 5.05896 20.9648C3.69871 19.0479 2.54254 16.0396 2.50172 13.1512C2.47422 11.6206 2.77413 10.116 3.53544 8.83808C4.60998 7.05397 6.52835 5.84286 8.6233 5.80292C10.2285 5.74996 11.657 6.8812 12.6366 6.8812C13.5754 6.8812 15.3305 5.80292 17.3163 5.80292C18.1735 5.80379 20.4592 6.05643 21.8744 8.18608ZM12.5009 5.49732C12.2151 4.09955 13.004 2.70178 13.7387 1.81016C14.6774 0.731877 16.1601 0 17.4388 0C17.5204 1.39777 17.0031 2.76863 16.0785 3.76704C15.2489 4.84532 13.8203 5.65707 12.5009 5.49732Z" fill="black"/>
</svg>
