<svg width="390" height="537" viewBox="0 0 390 537" fill="none" xmlns="http://www.w3.org/2000/svg">
<path d="M-28.839 458.939C10.4578 409.937 47.9648 363.116 83.8377 318.398C46.0972 361.324 6.95607 405.886 -33.5858 452.083C-32.0295 454.343 -30.3953 456.68 -28.7612 459.017L-28.839 458.939Z" fill="#D0D8EF"/>
<path d="M-62.7666 344.886C-23.3919 321.359 16.8386 297.364 57.9252 272.746C16.6052 294.871 -23.4698 316.373 -62.4553 337.251C-62.5331 339.822 -62.6109 342.315 -62.7666 344.886Z" fill="#D0D8EF"/>
<path d="M-34.5196 233.014C-3.47119 228.184 29.6782 223.042 65.2398 217.589C30.6898 220.705 -1.37018 223.588 -31.1735 226.236C-32.2629 228.496 -33.4301 230.755 -34.5196 233.014Z" fill="#D0D8EF"/>
<path d="M30.8454 137.814C51.2331 146.072 73.5661 155.187 98.2336 165.159C75.5115 153.084 54.8904 142.177 36.059 132.283C34.3471 134.153 32.5574 135.944 30.8454 137.814Z" fill="#D0D8EF"/>
<path d="M120.178 63.7264C128.737 81.8783 138.075 101.9 148.425 124.025C140.487 100.498 133.251 79.1516 126.714 59.7532C124.535 61.0776 122.356 62.4799 120.178 63.8043V63.7264Z" fill="#D0D8EF"/>
<path d="M227.329 14.802C221.338 41.056 214.957 69.4914 207.953 100.186C217.602 68.7902 226.551 39.6537 234.877 12.6206C232.387 13.3218 229.819 14.0229 227.329 14.802Z" fill="#D0D8EF"/>
<path d="M346.309 0.545336C320.941 32.4085 294.562 65.5182 267.093 99.9523C297.052 65.9856 326.077 33.1097 354.246 1.24648C351.601 1.01277 348.955 0.779051 346.309 0.545336Z" fill="#D0D8EF"/>
<path d="M461.554 39.7316C410.663 70.0367 360.938 99.6406 312.459 128.543C362.65 101.51 414.553 73.6203 468.168 44.7175C465.911 43.0036 463.733 41.3676 461.554 39.7316Z" fill="#D0D8EF"/>
<path d="M531.588 155.031C456.262 166.172 388.252 176.299 326.466 185.492C388.096 179.493 456.496 172.871 532.911 165.47C532.444 161.965 531.977 158.537 531.588 155.031Z" fill="#D0D8EF"/>
<path d="M486.999 337.952C412.686 306.557 349.655 279.913 295.574 257.087C347.165 283.419 407.472 314.113 478.829 350.573C481.552 346.366 484.276 342.159 486.999 337.952Z" fill="#D0D8EF"/>
<path d="M306.857 497.58C274.952 426.453 248.184 366.777 225.384 315.905C244.215 368.803 266.237 430.737 292.383 504.28C297.208 502.099 301.954 499.839 306.779 497.658L306.857 497.58Z" fill="#D0D8EF"/>
<path d="M98.1557 532.949C115.431 459.796 130.76 395.135 144.456 337.407C127.337 394.901 108.194 458.939 86.7947 530.69C90.6077 531.469 94.3428 532.17 98.2336 532.949H98.1557Z" fill="#D0D8EF"/>
<path d="M-15.1435 475.844C22.3635 422.246 57.8474 371.763 91.308 324.007C55.6685 370.127 18.3171 418.506 -20.9797 469.378C-19.0343 471.482 -17.0889 473.663 -15.1435 475.844Z" fill="#D0D8EF"/>
<path d="M-62.6109 364.518C-22.3803 337.173 18.2393 309.517 59.4037 281.549C17.7724 307.102 -23.0029 332.265 -63 356.805C-62.8444 359.376 -62.7666 361.947 -62.6109 364.518Z" fill="#D0D8EF"/>
<path d="M-42.5345 250.777C-9.92987 243.298 24.7758 235.351 61.7381 226.938C25.6318 232.936 -8.06231 238.545 -39.6554 243.765C-40.667 246.102 -41.6008 248.439 -42.6124 250.777H-42.5345Z" fill="#D0D8EF"/>
<path d="M17.8502 152.382C40.1054 158.771 64.3839 165.782 91.0745 173.417C66.1736 163.601 43.4515 154.72 22.8304 146.617C21.1963 148.565 19.5622 150.435 17.8502 152.382Z" fill="#D0D8EF"/>
<path d="M103.681 74.5552C114.264 91.2269 126.014 109.613 138.931 129.868C128.348 107.976 118.777 88.1886 110.062 70.1925C107.96 71.5948 105.859 73.075 103.758 74.4773L103.681 74.5552Z" fill="#D0D8EF"/>
<path d="M208.187 20.9565C204.918 45.964 201.339 73.1529 197.448 102.757C203.985 72.3738 209.977 44.328 215.579 18.4635C213.089 19.3205 210.677 20.0995 208.187 20.9565Z" fill="#D0D8EF"/>
<path d="M325.766 0C304.055 31.24 281.255 63.9601 257.444 98.2384C283.901 64.1938 309.347 31.5516 333.703 0.0779051C331.057 0.0779051 328.412 0.0779051 325.766 0Z" fill="#D0D8EF"/>
<path d="M443.501 28.5912C397.123 60.0648 351.367 91.149 306.234 121.766C353.313 92.7071 401.402 63.0252 450.582 32.7201C448.247 31.3179 445.835 29.9156 443.578 28.5133L443.501 28.5912Z" fill="#D0D8EF"/>
<path d="M525.362 130.179C453.228 146.228 387.24 160.952 326.622 174.507C387.474 163.99 454.317 152.46 527.93 139.762C527.074 136.568 526.218 133.374 525.362 130.179Z" fill="#D0D8EF"/>
<path d="M504.197 305.778C426.77 282.484 360.627 262.54 303.433 245.323C358.448 266.046 422.413 290.119 497.66 318.476C499.839 314.191 502.018 309.984 504.197 305.7V305.778Z" fill="#D0D8EF"/>
<path d="M342.341 478.104C301.565 411.495 267.404 355.715 238.379 308.271C263.514 358.052 293.083 416.481 328.334 486.206C333.003 483.479 337.672 480.83 342.341 478.104Z" fill="#D0D8EF"/>
<path d="M128.504 536.533C139.164 461.12 148.58 395.135 156.829 337.018C144.845 395.368 131.383 461.042 116.131 535.598C120.255 535.909 124.38 536.221 128.504 536.533Z" fill="#D0D8EF"/>
<path d="M2.0537 491.348C37.2263 433.23 69.9088 379.164 100.412 328.682C67.4187 377.762 32.4017 429.958 -4.94968 485.427C-2.61522 487.374 -0.35857 489.322 1.97589 491.348H2.0537Z" fill="#D0D8EF"/>
<path d="M-60.043 384.072C-19.2677 352.754 21.5854 321.359 62.5163 289.885C20.885 319.021 -20.3571 347.846 -61.1324 376.36C-60.7434 378.931 -60.3543 381.423 -59.9652 384.072H-60.043Z" fill="#D0D8EF"/>
<path d="M-49.071 268.851C-14.8322 258.567 21.2741 247.66 59.4815 236.208C21.8966 245.245 -13.3538 253.737 -46.5809 261.683C-47.4369 264.098 -48.2151 266.435 -49.071 268.851Z" fill="#D0D8EF"/>
<path d="M5.94447 167.418C29.9894 171.781 56.2132 176.611 84.9271 181.831C57.8474 174.43 33.1799 167.652 10.6134 161.419C9.05709 163.445 7.50078 165.393 5.94447 167.418Z" fill="#D0D8EF"/>
<path d="M88.1954 85.9293C100.879 101.043 114.808 117.715 130.216 136.1C117.065 116.001 105.081 97.8488 94.265 81.3329C92.2418 82.891 90.2186 84.3712 88.1176 85.9293H88.1954Z" fill="#D0D8EF"/>
<path d="M189.9 27.89C189.2 51.6511 188.422 77.5156 187.566 105.873C190.99 76.6586 194.18 49.7814 197.137 25.0854C194.725 26.0203 192.312 26.9552 189.9 27.9679V27.89Z" fill="#D0D8EF"/>
<path d="M305.923 0.545336C287.714 31.0062 268.494 63.1811 248.106 97.0698C271.062 63.1811 293.006 30.9283 313.86 0.15581C311.214 0.31162 308.569 0.389526 305.923 0.545336Z" fill="#D0D8EF"/>
<path d="M425.37 19.3205C383.505 51.4953 341.64 83.6701 299.931 115.767C343.741 85.0724 388.096 54.0662 432.762 22.7483C430.272 21.5797 427.86 20.489 425.37 19.3984V19.3205Z" fill="#D0D8EF"/>
<path d="M517.27 107.353C448.792 127.609 385.295 146.384 326.311 163.912C385.917 149.266 450.582 133.374 521.005 116.079C519.76 113.196 518.515 110.314 517.347 107.431L517.27 107.353Z" fill="#D0D8EF"/>
<path d="M518.359 273.369C438.987 257.944 370.588 244.7 311.059 233.17C368.876 248.284 435.641 265.734 513.612 286.068C515.246 281.861 516.803 277.576 518.437 273.447L518.359 273.369Z" fill="#D0D8EF"/>
<path d="M377.435 455.044C328.023 393.966 286.703 342.86 251.686 299.545C283.045 345.509 319.93 399.731 364.051 464.47C368.487 461.354 372.922 458.16 377.357 455.044H377.435Z" fill="#D0D8EF"/>
<path d="M161.964 536.533C165.155 459.718 167.956 393.265 170.368 335.148C164.065 393.732 156.906 460.419 148.736 537C153.093 536.844 157.529 536.688 161.964 536.533Z" fill="#D0D8EF"/>
<path d="M196.904 532.715C191.923 455.589 187.721 389.448 184.064 332.11C183.753 390.305 183.441 457.147 183.052 534.663C187.644 534.04 192.312 533.338 196.981 532.715H196.904Z" fill="#D0D8EF"/>
<path d="M21.741 505.059C53.7231 442.657 83.0596 385.241 110.139 332.343C80.336 384.15 48.1982 439.852 13.6482 499.839C16.2939 501.553 19.0175 503.267 21.741 505.059Z" fill="#D0D8EF"/>
<path d="M-55.6853 403.393C-14.5988 367.868 26.0209 332.655 66.3293 297.753C25.0871 330.396 -16.2329 363.038 -57.6307 395.758C-57.0082 398.251 -56.3079 400.822 -55.6853 403.393Z" fill="#D0D8EF"/>
<path d="M-54.5959 287.314C-18.8787 273.992 18.4728 260.047 57.7696 245.401C18.9397 257.554 -17.7892 269.084 -52.5727 279.991C-53.2731 282.406 -53.8956 284.899 -54.5959 287.314Z" fill="#D0D8EF"/>
<path d="M-5.41658 182.999C20.4181 185.258 48.5095 187.751 79.091 190.478C49.988 185.492 23.3751 180.974 -1.05892 176.845C-2.53741 178.87 -3.93809 180.974 -5.41658 183.077V182.999Z" fill="#D0D8EF"/>
<path d="M73.0214 97.9267C87.7285 111.404 103.836 126.284 121.656 142.722C105.937 124.492 91.7749 108.054 78.9353 93.0966C76.9899 94.7326 74.9668 96.2907 73.0214 97.9267Z" fill="#D0D8EF"/>
<path d="M171.847 35.6805C173.559 58.1172 175.504 82.6573 177.605 109.535C178.072 81.5667 178.539 56.0138 178.928 32.4864C176.594 33.5771 174.181 34.5899 171.847 35.6805Z" fill="#D0D8EF"/>
<path d="M285.924 2.41506C270.984 31.9411 255.187 63.3369 238.301 96.7582C257.833 63.259 276.275 31.5516 293.784 1.4802C291.138 1.79182 288.57 2.10344 285.924 2.33715V2.41506Z" fill="#D0D8EF"/>
<path d="M406.149 11.9974C368.642 44.5617 330.746 77.3598 292.539 110.469C333.003 78.4505 373.389 46.5094 413.775 14.5683C411.207 13.7113 408.639 12.7764 406.149 11.9195V11.9974Z" fill="#D0D8EF"/>
<path d="M506.22 86.9421C441.867 110.703 381.404 132.984 324.443 153.941C382.26 135.555 444.279 115.845 510.811 94.6547C509.255 92.0839 507.698 89.513 506.22 86.9421Z" fill="#D0D8EF"/>
<path d="M527.619 241.662C447.703 233.793 378.058 227.016 316.895 220.939C376.813 230.443 445.29 241.35 524.507 253.971C525.596 249.842 526.608 245.713 527.619 241.662Z" fill="#D0D8EF"/>
<path d="M409.729 428.868C352.534 374.334 304.678 328.682 263.98 289.885C301.176 331.564 344.986 380.644 397.356 439.385C401.48 435.879 405.605 432.296 409.729 428.79V428.868Z" fill="#D0D8EF"/>
<path d="M232.776 525.47C219.159 449.045 207.564 384.072 197.604 328.214C203.518 385.397 210.443 451.538 218.458 528.976C223.205 527.807 228.03 526.639 232.776 525.47Z" fill="#D0D8EF"/>
<path d="M44.074 517.29C72.0876 450.759 97.4554 390.46 120.567 335.459C94.4206 389.604 65.9402 448.5 34.814 512.927C37.8488 514.407 40.9614 515.81 44.074 517.29Z" fill="#D0D8EF"/>
<path d="M-49.4601 422.869C-8.52919 382.904 31.5458 343.873 70.8425 305.544C30.3007 341.692 -10.708 378.307 -52.2615 415.39C-51.3277 417.883 -50.3939 420.376 -49.4601 422.869Z" fill="#D0D8EF"/>
<path d="M-59.0314 306.479C-21.9913 289.963 16.6052 272.824 56.6801 254.906C16.8386 270.331 -21.2131 284.977 -57.5529 299C-58.0198 301.493 -58.5645 303.986 -59.0314 306.479Z" fill="#D0D8EF"/>
<path d="M-16.2329 199.359C11.3915 199.359 41.1948 199.515 73.5661 199.593C42.5177 197.178 14.0373 194.997 -12.1865 192.971C-13.5094 195.074 -14.9101 197.256 -16.2329 199.359Z" fill="#D0D8EF"/>
<path d="M58.1586 110.859C74.7333 122.701 93.0199 135.711 113.174 150.123C95.0431 133.841 78.7019 119.117 63.8391 105.795C61.9716 107.509 60.0262 109.145 58.1586 110.859Z" fill="#D0D8EF"/>
<path d="M153.949 44.4838C157.996 65.5182 162.509 88.656 167.412 114.053C164.999 87.4095 162.82 63.1811 160.797 40.9781C158.463 42.1467 156.206 43.3152 153.872 44.4838H153.949Z" fill="#D0D8EF"/>
<path d="M265.926 5.68707C254.176 34.2004 241.57 64.7392 228.03 97.4593C244.215 64.4275 259.389 33.4992 273.63 4.36269C271.062 4.83012 268.416 5.21964 265.848 5.68707H265.926Z" fill="#D0D8EF"/>
<path d="M386.306 6.77775C353.001 39.3421 318.996 72.5297 284.368 106.418C321.33 73.4645 357.904 40.9002 394.088 8.72537C391.442 8.10213 388.874 7.40099 386.306 6.77775Z" fill="#D0D8EF"/>
<path d="M492.758 69.1797C432.762 95.6675 375.646 120.909 321.253 144.981C376.891 123.324 435.797 100.342 498.205 75.9575C496.415 73.6982 494.548 71.3611 492.758 69.1797Z" fill="#D0D8EF"/>
<path d="M532.521 211.512C453.15 210.655 383.272 209.876 321.175 209.175C382.338 213.304 451.671 217.979 530.965 223.354C531.51 219.381 531.977 215.408 532.521 211.512Z" fill="#D0D8EF"/>
<path d="M438.754 400.744C374.634 353.378 320.941 313.724 275.186 279.913C317.751 316.84 367.786 360.311 427.626 412.274C431.361 408.457 435.097 404.561 438.754 400.744Z" fill="#D0D8EF"/>
<path d="M269.972 513.395C247.25 438.995 228.108 376.204 211.688 322.527C224.061 377.918 238.457 442.423 255.499 518.459C260.323 516.745 265.148 515.109 270.05 513.395H269.972Z" fill="#D0D8EF"/>
<path d="M69.9088 526.405C93.0199 456.29 113.641 393.499 132.317 336.94C110.373 392.953 86.25 454.732 59.5593 523.055C62.9832 524.146 66.4071 525.314 69.9088 526.483V526.405Z" fill="#D0D8EF"/>
<path d="M-40.2779 441.177C0.108311 396.771 39.1716 353.767 76.9121 312.166C37.5375 351.742 -2.77086 392.33 -44.0909 433.932C-42.8458 436.347 -41.6008 438.762 -40.2779 441.177Z" fill="#D0D8EF"/>
<path d="M-61.5993 325.488C-23.3141 305.544 16.2161 285.055 56.9136 263.865C16.2161 282.562 -23.0029 300.558 -60.7434 317.931C-61.0546 320.424 -61.3659 322.995 -61.6771 325.488H-61.5993Z" fill="#D0D8EF"/>
<path d="M-25.7264 215.875C3.61001 213.538 35.1253 211.123 69.2084 208.396C36.3703 208.708 6.02229 208.942 -21.9913 209.253C-23.2363 211.434 -24.4814 213.616 -25.7264 215.875Z" fill="#D0D8EF"/>
<path d="M44.3075 123.947C62.8275 134.075 83.1374 145.137 105.626 157.368C85.1606 143.19 66.6405 130.335 49.7546 118.649C47.9648 120.441 46.0972 122.155 44.3075 123.947Z" fill="#D0D8EF"/>
<path d="M136.908 53.6766C143.289 73.3087 150.214 94.8884 157.918 118.65C152.704 93.5641 147.958 70.7379 143.6 49.8593C141.343 51.1058 139.087 52.3522 136.908 53.5987V53.6766Z" fill="#D0D8EF"/>
<path d="M246.55 9.66024C237.757 37.0828 228.263 66.6089 218.069 98.3942C230.909 66.1414 242.97 35.9922 254.176 7.86842C251.608 8.49166 249.04 9.03699 246.55 9.66024Z" fill="#D0D8EF"/>
<path d="M366.463 2.80458C337.205 35.1352 307.09 68.4007 276.042 102.679C309.502 69.1019 342.263 36.2259 374.323 4.05107C371.677 3.58364 369.031 3.19411 366.463 2.80458Z" fill="#D0D8EF"/>
<path d="M478.051 53.2092C422.568 81.8783 369.031 109.612 317.44 136.256C370.51 111.716 425.992 86.0073 484.12 59.13C482.097 57.1824 480.074 55.1568 478.051 53.2092Z" fill="#D0D8EF"/>
<path d="M534 182.22C456.262 187.751 386.851 192.659 324.599 197.1C386.384 196.009 455.64 194.763 534 193.438C534 189.699 534 185.96 534 182.298V182.22Z" fill="#D0D8EF"/>
<path d="M464.978 369.816C395.099 330.318 336.271 297.052 286.002 268.617C333.392 300.324 389.03 337.641 455.251 381.969C458.519 377.918 461.709 373.867 464.978 369.816Z" fill="#D0D8EF"/>
</svg>
