<svg width="27" height="25" viewBox="0 0 27 25" fill="none" xmlns="http://www.w3.org/2000/svg">
<path d="M0.292969 11.0742V9.58594C0.292969 9.10938 0.429688 8.73047 0.703125 8.44922C0.984375 8.16797 1.36719 8.02734 1.85156 8.02734H25.1484C25.6328 8.02734 26.0117 8.16797 26.2852 8.44922C26.5664 8.73047 26.707 9.10938 26.707 9.58594V11.0742C26.707 11.5586 26.5664 11.9414 26.2852 12.2227C26.0117 12.4961 25.6328 12.6328 25.1484 12.6328H1.85156C1.36719 12.6328 0.984375 12.4961 0.703125 12.2227C0.429688 11.9414 0.292969 11.5586 0.292969 11.0742ZM2.14453 9.44531C1.85547 9.44531 1.71094 9.59766 1.71094 9.90234V10.7578C1.71094 11.0625 1.85547 11.2148 2.14453 11.2148H24.8438C25.1406 11.2148 25.2891 11.0625 25.2891 10.7578V9.90234C25.2891 9.59766 25.1406 9.44531 24.8438 9.44531H2.14453ZM7.11328 24.3398C6.37109 24.3398 5.76953 24.207 5.30859 23.9414C4.84766 23.6836 4.49219 23.3359 4.24219 22.8984C4 22.4609 3.82422 21.9805 3.71484 21.457L1.82812 12.2109L3.25781 12.082L5.05078 20.9648C5.14453 21.4102 5.26953 21.7734 5.42578 22.0547C5.58203 22.3438 5.80859 22.5547 6.10547 22.6875C6.40234 22.8281 6.80859 22.8984 7.32422 22.8984H19.6758C20.1914 22.8984 20.5977 22.8281 20.8945 22.6875C21.1992 22.5547 21.4258 22.3438 21.5742 22.0547C21.7305 21.7734 21.8555 21.4102 21.9492 20.9648L23.7422 12.082L25.1836 12.2109L23.2852 21.457C23.1758 21.9805 23 22.4609 22.7578 22.8984C22.5156 23.3359 22.1641 23.6836 21.7031 23.9414C21.2422 24.207 20.6367 24.3398 19.8867 24.3398H7.11328ZM8.58984 21.5039C8.42578 21.5352 8.28516 21.5078 8.16797 21.4219C8.05078 21.3438 7.97656 21.2266 7.94531 21.0703L6.90234 14.5547C6.87109 14.4062 6.89844 14.2773 6.98438 14.168C7.07812 14.0508 7.21094 13.9766 7.38281 13.9453C7.54688 13.9219 7.6875 13.9492 7.80469 14.0273C7.92969 14.1055 8.00391 14.2227 8.02734 14.3789L9.07031 20.8945C9.09375 21.043 9.0625 21.1758 8.97656 21.293C8.89062 21.4102 8.76172 21.4805 8.58984 21.5039ZM11.9297 21.4688C11.7578 21.4844 11.6172 21.4453 11.5078 21.3516C11.3984 21.2578 11.3359 21.1328 11.3203 20.9766L10.875 14.4844C10.8594 14.3281 10.9023 14.1953 11.0039 14.0859C11.1055 13.9766 11.2422 13.918 11.4141 13.9102C11.5859 13.8945 11.7227 13.9375 11.8242 14.0391C11.9336 14.1328 11.9961 14.2578 12.0117 14.4141L12.4688 20.9062C12.4688 21.0625 12.418 21.1914 12.3164 21.293C12.2227 21.4023 12.0938 21.4609 11.9297 21.4688ZM15.082 21.4688C14.918 21.4609 14.7852 21.4023 14.6836 21.293C14.582 21.1914 14.5352 21.0625 14.543 20.9062L15 14.4141C15.0156 14.2578 15.0781 14.1328 15.1875 14.0391C15.2969 13.9375 15.4375 13.8945 15.6094 13.9102C15.7734 13.918 15.9062 13.9766 16.0078 14.0859C16.1094 14.1953 16.1562 14.3281 16.1484 14.4844L15.6914 20.9766C15.6758 21.1328 15.6133 21.2578 15.5039 21.3516C15.3945 21.4453 15.2539 21.4844 15.082 21.4688ZM18.4102 21.5039C18.2383 21.4805 18.1094 21.4102 18.0234 21.293C17.9375 21.1758 17.9062 21.043 17.9297 20.8945L18.9727 14.3789C19.0039 14.2227 19.0781 14.1055 19.1953 14.0273C19.3125 13.9492 19.457 13.9219 19.6289 13.9453C19.8008 13.9766 19.9297 14.0508 20.0156 14.168C20.1094 14.2773 20.1406 14.4062 20.1094 14.5547L19.0547 21.0703C19.0312 21.2266 18.957 21.3438 18.832 21.4219C18.7148 21.5078 18.5742 21.5352 18.4102 21.5039ZM3.98438 8.36719L8.625 0.445312C8.74219 0.25 8.89453 0.136719 9.08203 0.105469C9.26953 0.0742187 9.44531 0.101563 9.60938 0.1875C9.77344 0.28125 9.89062 0.417969 9.96094 0.597656C10.0312 0.769531 10.0078 0.960938 9.89062 1.17188L5.75391 8.36719H3.98438ZM21.2461 8.36719L17.1094 1.17188C16.9922 0.960938 16.9688 0.769531 17.0391 0.597656C17.1094 0.417969 17.2266 0.28125 17.3906 0.1875C17.5625 0.101563 17.7422 0.078125 17.9297 0.117188C18.1172 0.148438 18.2656 0.257812 18.375 0.445312L23.0156 8.36719H21.2461Z" fill="#7585B7"/>
</svg>
