<svg width="22" height="23" viewBox="0 0 22 23" fill="none" xmlns="http://www.w3.org/2000/svg">
<path d="M0.429688 11.1875V12.3008H9.47656C9.23438 12.7852 8.90234 13.2812 8.48047 13.7891C8.06641 14.2891 7.60938 14.7539 7.10938 15.1836C6.60938 15.6133 6.10547 15.9727 5.59766 16.2617C5.09766 16.543 4.64062 16.7148 4.22656 16.7773C3.95312 16.8086 3.74609 16.8984 3.60547 17.0469C3.47266 17.1875 3.40625 17.3789 3.40625 17.6211C3.40625 17.832 3.48438 18.0234 3.64062 18.1953C3.80469 18.3594 4.02734 18.4219 4.30859 18.3828C4.75391 18.3047 5.26172 18.1211 5.83203 17.832C6.40234 17.5352 6.97656 17.1562 7.55469 16.6953C8.13281 16.2266 8.66797 15.6875 9.16016 15.0781C9.65234 14.4609 10.043 13.7891 10.332 13.0625H10.4023V22.1094H11.6094V13.0625H11.668C11.957 13.7891 12.3477 14.4609 12.8398 15.0781C13.332 15.6875 13.8672 16.2266 14.4453 16.6953C15.0234 17.1562 15.5977 17.5352 16.168 17.832C16.7383 18.1211 17.25 18.3047 17.7031 18.3828C17.9844 18.4219 18.2031 18.3594 18.3594 18.1953C18.5234 18.0234 18.6055 17.832 18.6055 17.6211C18.6055 17.3789 18.5352 17.1836 18.3945 17.0352C18.2617 16.8867 18.0547 16.8008 17.7734 16.7773C17.3672 16.7227 16.9102 16.5547 16.4023 16.2734C15.9023 15.9844 15.3984 15.625 14.8906 15.1953C14.3906 14.7578 13.9336 14.2891 13.5195 13.7891C13.1055 13.2812 12.7734 12.7852 12.5234 12.3008H21.5586V11.1875H15.4531C16.0156 10.9531 16.5234 10.6523 16.9766 10.2852C17.4297 9.91797 17.7852 9.5 18.043 9.03125C18.3086 8.5625 18.4414 8.05469 18.4414 7.50781C18.4414 6.92188 18.3164 6.41016 18.0664 5.97266C17.8242 5.52734 17.4844 5.17969 17.0469 4.92969C16.6172 4.67969 16.1211 4.55469 15.5586 4.55469C15.0195 4.55469 14.4961 4.67969 13.9883 4.92969C13.4883 5.17188 13.0312 5.51562 12.6172 5.96094C12.2109 6.39844 11.875 6.91406 11.6094 7.50781V0.96875H10.4023V7.50781C10.1367 6.91406 9.79688 6.39844 9.38281 5.96094C8.97656 5.51562 8.51953 5.17188 8.01172 4.92969C7.51172 4.67969 6.98828 4.55469 6.44141 4.55469C5.88672 4.55469 5.39062 4.67969 4.95312 4.92969C4.52344 5.17969 4.18359 5.52734 3.93359 5.97266C3.68359 6.41016 3.55859 6.92188 3.55859 7.50781C3.55859 8.05469 3.69141 8.5625 3.95703 9.03125C4.22266 9.5 4.57812 9.91797 5.02344 10.2852C5.47656 10.6523 5.98828 10.9531 6.55859 11.1875H0.429688ZM9.83984 11.082C9.19141 11.082 8.57422 10.9844 7.98828 10.7891C7.40234 10.5859 6.87891 10.3203 6.41797 9.99219C5.95703 9.65625 5.59375 9.28516 5.32812 8.87891C5.0625 8.46484 4.92969 8.04297 4.92969 7.61328C4.92969 7.11328 5.07422 6.71094 5.36328 6.40625C5.65234 6.10156 6.03516 5.94922 6.51172 5.94922C6.99609 5.94922 7.45703 6.07812 7.89453 6.33594C8.33984 6.59375 8.73438 6.94531 9.07812 7.39062C9.42188 7.83594 9.69531 8.34766 9.89844 8.92578C10.1016 9.50391 10.2031 10.1055 10.2031 10.7305V11.082H9.83984ZM12.1602 11.082H11.7969V10.7305C11.7969 10.1055 11.8984 9.50391 12.1016 8.92578C12.3047 8.34766 12.5781 7.83594 12.9219 7.39062C13.2734 6.94531 13.6719 6.59375 14.1172 6.33594C14.5625 6.07812 15.0234 5.94922 15.5 5.94922C15.9688 5.94922 16.3477 6.10156 16.6367 6.40625C16.9258 6.71094 17.0703 7.11328 17.0703 7.61328C17.0703 8.04297 16.9375 8.46484 16.6719 8.87891C16.4141 9.28516 16.0547 9.65625 15.5938 9.99219C15.1328 10.3203 14.6055 10.5859 14.0117 10.7891C13.4258 10.9844 12.8086 11.082 12.1602 11.082ZM20.2578 2.29297C20.7969 2.83203 21.1484 3.48438 21.3125 4.25C21.4766 5.01562 21.5586 5.92969 21.5586 6.99219V16.0742C21.5586 17.1445 21.4766 18.0625 21.3125 18.8281C21.1484 19.5859 20.7969 20.2383 20.2578 20.7852C19.7109 21.3242 19.0508 21.6797 18.2773 21.8516C17.5117 22.0234 16.5977 22.1094 15.5352 22.1094H6.45312C5.39062 22.1094 4.47266 22.0234 3.69922 21.8516C2.93359 21.6797 2.27734 21.3242 1.73047 20.7852C1.19141 20.2461 0.839844 19.5938 0.675781 18.8281C0.511719 18.0625 0.429688 17.1445 0.429688 16.0742V6.92188C0.429688 5.89844 0.511719 5.00781 0.675781 4.25C0.847656 3.49219 1.20312 2.83984 1.74219 2.29297C2.28125 1.75391 2.93359 1.39844 3.69922 1.22656C4.46484 1.05469 5.35938 0.96875 6.38281 0.96875H15.5352C16.5977 0.96875 17.5117 1.05469 18.2773 1.22656C19.0508 1.39844 19.7109 1.75391 20.2578 2.29297Z" fill="#010C2D"/>
</svg>
