<svg width="16" height="15" viewBox="0 0 16 15" fill="none" xmlns="http://www.w3.org/2000/svg">
<path d="M-0.0078125 5.15625C-0.0078125 2.28906 1.97656 0.289062 4.53125 0.289062C6.01562 0.289062 7.1875 0.984375 7.88281 2.00781C8.58594 0.976562 9.75 0.289062 11.2344 0.289062C13.7969 0.289062 15.7734 2.28906 15.7734 5.15625C15.7734 8.5 12.9766 11.7969 8.60938 14.6094C8.375 14.7578 8.08594 14.9062 7.88281 14.9062C7.6875 14.9062 7.39062 14.7578 7.15625 14.6094C2.78906 11.7969 -0.0078125 8.5 -0.0078125 5.15625ZM1.5625 5.15625C1.5625 7.92188 4.44531 10.9766 7.73438 13.1641C7.80469 13.2109 7.85156 13.2422 7.88281 13.2422C7.91406 13.2422 7.96094 13.2109 8.03125 13.1641C11.3203 10.9766 14.2031 7.92188 14.2031 5.15625C14.2031 3.17188 12.8984 1.83594 11.1484 1.83594C9.74219 1.83594 8.97656 2.70312 8.45312 3.44531C8.21875 3.75 8.08594 3.85938 7.88281 3.85938C7.67969 3.85938 7.53125 3.75781 7.3125 3.44531C6.82031 2.69531 6.03125 1.83594 4.61719 1.83594C2.86719 1.83594 1.5625 3.17188 1.5625 5.15625Z" fill="white"/>
</svg>
