<svg width="29" height="25" viewBox="0 0 29 25" fill="none" xmlns="http://www.w3.org/2000/svg">
<path d="M3.83203 22.168C2.69141 22.168 1.83203 21.8789 1.25391 21.3008C0.675781 20.7305 0.386719 19.8789 0.386719 18.7461V4.37891C0.386719 3.24609 0.675781 2.39453 1.25391 1.82422C1.83203 1.24609 2.69141 0.957031 3.83203 0.957031H20.1445C21.293 0.957031 22.1523 1.24609 22.7227 1.82422C23.3008 2.39453 23.5898 3.24609 23.5898 4.37891V11.4453C23.4805 11.4297 23.3672 11.4219 23.25 11.4219C23.1328 11.4141 23.0156 11.4102 22.8984 11.4102C22.7812 11.4102 22.6641 11.4141 22.5469 11.4219C22.4297 11.4297 22.2969 11.4414 22.1484 11.457V8.08203C22.1484 7.44922 21.9805 6.97266 21.6445 6.65234C21.3164 6.32422 20.8477 6.16016 20.2383 6.16016H3.73828C3.12109 6.16016 2.64844 6.32422 2.32031 6.65234C1.99219 6.97266 1.82812 7.44922 1.82812 8.08203V18.8047C1.82812 19.4375 1.99219 19.9141 2.32031 20.2344C2.64844 20.5625 3.12109 20.7266 3.73828 20.7266H16.0547C16.125 20.9844 16.2109 21.2305 16.3125 21.4648C16.4141 21.707 16.5312 21.9414 16.6641 22.168H3.83203ZM9.65625 10.3203C9.47656 10.3203 9.35156 10.293 9.28125 10.2383C9.21875 10.1758 9.1875 10.0547 9.1875 9.875V9.18359C9.1875 9.00391 9.21875 8.88281 9.28125 8.82031C9.35156 8.75781 9.47656 8.72656 9.65625 8.72656H10.3477C10.5273 8.72656 10.6484 8.75781 10.7109 8.82031C10.7812 8.88281 10.8164 9.00391 10.8164 9.18359V9.875C10.8164 10.0547 10.7812 10.1758 10.7109 10.2383C10.6484 10.293 10.5273 10.3203 10.3477 10.3203H9.65625ZM13.6406 10.3203C13.4531 10.3203 13.3281 10.293 13.2656 10.2383C13.2031 10.1758 13.1719 10.0547 13.1719 9.875V9.18359C13.1719 9.00391 13.2031 8.88281 13.2656 8.82031C13.3281 8.75781 13.4531 8.72656 13.6406 8.72656H14.3203C14.5078 8.72656 14.6328 8.75781 14.6953 8.82031C14.7578 8.88281 14.7891 9.00391 14.7891 9.18359V9.875C14.7891 10.0547 14.7578 10.1758 14.6953 10.2383C14.6328 10.293 14.5078 10.3203 14.3203 10.3203H13.6406ZM17.6133 10.3203C17.4258 10.3203 17.3008 10.293 17.2383 10.2383C17.1758 10.1758 17.1445 10.0547 17.1445 9.875V9.18359C17.1445 9.00391 17.1758 8.88281 17.2383 8.82031C17.3008 8.75781 17.4258 8.72656 17.6133 8.72656H18.3047C18.4844 8.72656 18.6055 8.75781 18.668 8.82031C18.7305 8.88281 18.7617 9.00391 18.7617 9.18359V9.875C18.7617 10.0547 18.7305 10.1758 18.668 10.2383C18.6055 10.293 18.4844 10.3203 18.3047 10.3203H17.6133ZM5.68359 14.2344C5.49609 14.2344 5.37109 14.207 5.30859 14.1523C5.24609 14.0898 5.21484 13.9688 5.21484 13.7891V13.0977C5.21484 12.918 5.24609 12.8008 5.30859 12.7461C5.37109 12.6836 5.49609 12.6523 5.68359 12.6523H6.375C6.55469 12.6523 6.67578 12.6836 6.73828 12.7461C6.80078 12.8008 6.83203 12.918 6.83203 13.0977V13.7891C6.83203 13.9688 6.80078 14.0898 6.73828 14.1523C6.67578 14.207 6.55469 14.2344 6.375 14.2344H5.68359ZM9.65625 14.2344C9.47656 14.2344 9.35156 14.207 9.28125 14.1523C9.21875 14.0898 9.1875 13.9688 9.1875 13.7891V13.0977C9.1875 12.918 9.21875 12.8008 9.28125 12.7461C9.35156 12.6836 9.47656 12.6523 9.65625 12.6523H10.3477C10.5273 12.6523 10.6484 12.6836 10.7109 12.7461C10.7812 12.8008 10.8164 12.918 10.8164 13.0977V13.7891C10.8164 13.9688 10.7812 14.0898 10.7109 14.1523C10.6484 14.207 10.5273 14.2344 10.3477 14.2344H9.65625ZM13.6406 14.2344C13.4531 14.2344 13.3281 14.207 13.2656 14.1523C13.2031 14.0898 13.1719 13.9688 13.1719 13.7891V13.0977C13.1719 12.918 13.2031 12.8008 13.2656 12.7461C13.3281 12.6836 13.4531 12.6523 13.6406 12.6523H14.3203C14.5078 12.6523 14.6328 12.6836 14.6953 12.7461C14.7578 12.8008 14.7891 12.918 14.7891 13.0977V13.7891C14.7891 13.9688 14.7578 14.0898 14.6953 14.1523C14.6328 14.207 14.5078 14.2344 14.3203 14.2344H13.6406ZM5.68359 18.1602C5.49609 18.1602 5.37109 18.1289 5.30859 18.0664C5.24609 18.0039 5.21484 17.8828 5.21484 17.7031V17.0117C5.21484 16.832 5.24609 16.7148 5.30859 16.6602C5.37109 16.5977 5.49609 16.5664 5.68359 16.5664H6.375C6.55469 16.5664 6.67578 16.5977 6.73828 16.6602C6.80078 16.7148 6.83203 16.832 6.83203 17.0117V17.7031C6.83203 17.8828 6.80078 18.0039 6.73828 18.0664C6.67578 18.1289 6.55469 18.1602 6.375 18.1602H5.68359ZM9.65625 18.1602C9.47656 18.1602 9.35156 18.1289 9.28125 18.0664C9.21875 18.0039 9.1875 17.8828 9.1875 17.7031V17.0117C9.1875 16.832 9.21875 16.7148 9.28125 16.6602C9.35156 16.5977 9.47656 16.5664 9.65625 16.5664H10.3477C10.5273 16.5664 10.6484 16.5977 10.7109 16.6602C10.7812 16.7148 10.8164 16.832 10.8164 17.0117V17.7031C10.8164 17.8828 10.7812 18.0039 10.7109 18.0664C10.6484 18.1289 10.5273 18.1602 10.3477 18.1602H9.65625ZM13.6406 18.1602C13.4531 18.1602 13.3281 18.1289 13.2656 18.0664C13.2031 18.0039 13.1719 17.8828 13.1719 17.7031V17.0117C13.1719 16.832 13.2031 16.7148 13.2656 16.6602C13.3281 16.5977 13.4531 16.5664 13.6406 16.5664H14.3203C14.5078 16.5664 14.6328 16.5977 14.6953 16.6602C14.7578 16.7148 14.7891 16.832 14.7891 17.0117V17.7031C14.7891 17.8828 14.7578 18.0039 14.6953 18.0664C14.6328 18.1289 14.5078 18.1602 14.3203 18.1602H13.6406ZM22.8867 24.418C22.0898 24.418 21.3398 24.2656 20.6367 23.9609C19.9336 23.6641 19.3125 23.2461 18.7734 22.707C18.2422 22.1758 17.8242 21.5547 17.5195 20.8438C17.2148 20.1406 17.0625 19.3906 17.0625 18.5938C17.0625 17.7969 17.2148 17.0469 17.5195 16.3438C17.8242 15.6406 18.2422 15.0195 18.7734 14.4805C19.3125 13.9414 19.9336 13.5234 20.6367 13.2266C21.3398 12.9219 22.0898 12.7695 22.8867 12.7695C23.6914 12.7695 24.4453 12.9219 25.1484 13.2266C25.8516 13.5234 26.4688 13.9414 27 14.4805C27.5391 15.0117 27.957 15.6289 28.2539 16.332C28.5586 17.0352 28.7109 17.7891 28.7109 18.5938C28.7109 19.3906 28.5586 20.1406 28.2539 20.8438C27.9492 21.5469 27.5273 22.1641 26.9883 22.6953C26.4492 23.2344 25.8281 23.6562 25.125 23.9609C24.4219 24.2656 23.6758 24.418 22.8867 24.418ZM22.1719 21.6641C22.3984 21.6641 22.5742 21.582 22.6992 21.418L26.0273 16.8125C26.0742 16.75 26.1094 16.6836 26.1328 16.6133C26.1562 16.543 26.168 16.4805 26.168 16.4258C26.168 16.2383 26.1055 16.0859 25.9805 15.9688C25.8555 15.8516 25.707 15.793 25.5352 15.793C25.3164 15.793 25.1367 15.8867 24.9961 16.0742L22.1367 20.0234L20.6719 18.4414C20.6172 18.3867 20.5469 18.3359 20.4609 18.2891C20.3828 18.2422 20.2891 18.2188 20.1797 18.2188C20 18.2188 19.8477 18.2773 19.7227 18.3945C19.6055 18.5117 19.5469 18.6641 19.5469 18.8516C19.5469 18.9219 19.5586 19 19.582 19.0859C19.6133 19.1719 19.6562 19.2461 19.7109 19.3086L21.6562 21.4414C21.7266 21.5117 21.8086 21.5664 21.9023 21.6055C21.9961 21.6445 22.0859 21.6641 22.1719 21.6641Z" fill="#7585B7"/>
</svg>
