<svg width="22" height="22" viewBox="0 0 22 22" fill="none" xmlns="http://www.w3.org/2000/svg">
<path d="M0.470703 9.22461C0.470703 8.04297 0.692708 6.93652 1.13672 5.90527C1.58073 4.86686 2.19661 3.95378 2.98438 3.16602C3.77214 2.37826 4.68164 1.76237 5.71289 1.31836C6.7513 0.874349 7.86133 0.652344 9.04297 0.652344C10.2246 0.652344 11.3311 0.874349 12.3623 1.31836C13.4007 1.76237 14.3138 2.37826 15.1016 3.16602C15.8893 3.95378 16.5052 4.86686 16.9492 5.90527C17.3932 6.93652 17.6152 8.04297 17.6152 9.22461C17.6152 10.2057 17.4577 11.1367 17.1426 12.0176C16.8346 12.8984 16.4049 13.6969 15.8535 14.4131L21.1064 19.6982C21.221 19.8128 21.307 19.9453 21.3643 20.0957C21.4287 20.2461 21.4609 20.4072 21.4609 20.5791C21.4609 20.8154 21.4072 21.0303 21.2998 21.2236C21.1995 21.417 21.0563 21.5674 20.8701 21.6748C20.6839 21.7894 20.4691 21.8467 20.2256 21.8467C20.0537 21.8467 19.889 21.8145 19.7314 21.75C19.5811 21.6927 19.4414 21.6032 19.3125 21.4814L14.0273 16.1855C13.3255 16.6868 12.5521 17.0807 11.707 17.3672C10.862 17.6536 9.97396 17.7969 9.04297 17.7969C7.86133 17.7969 6.7513 17.5749 5.71289 17.1309C4.68164 16.6868 3.77214 16.071 2.98438 15.2832C2.19661 14.4954 1.58073 13.5859 1.13672 12.5547C0.692708 11.5163 0.470703 10.4062 0.470703 9.22461ZM2.30762 9.22461C2.30762 10.1556 2.47949 11.0293 2.82324 11.8457C3.17415 12.6549 3.65755 13.3675 4.27344 13.9834C4.89648 14.5993 5.61263 15.0827 6.42188 15.4336C7.23828 15.7845 8.11198 15.96 9.04297 15.96C9.97396 15.96 10.8441 15.7845 11.6533 15.4336C12.4697 15.0827 13.1859 14.5993 13.8018 13.9834C14.4176 13.3675 14.901 12.6549 15.252 11.8457C15.6029 11.0293 15.7783 10.1556 15.7783 9.22461C15.7783 8.29362 15.6029 7.4235 15.252 6.61426C14.901 5.79785 14.4176 5.08171 13.8018 4.46582C13.1859 3.84277 12.4697 3.35938 11.6533 3.01562C10.8441 2.66471 9.97396 2.48926 9.04297 2.48926C8.11198 2.48926 7.23828 2.66471 6.42188 3.01562C5.61263 3.35938 4.89648 3.84277 4.27344 4.46582C3.65755 5.08171 3.17415 5.79785 2.82324 6.61426C2.47949 7.4235 2.30762 8.29362 2.30762 9.22461Z" fill="#7585B7"/>
</svg>
